<svg width="26" height="26" viewBox="0 0 26 26" fill="none" xmlns="http://www.w3.org/2000/svg">
<g id="Vector">
<path d="M7.23444 25.4851C5.45261 25.4851 3.67527 24.8056 2.3209 23.4513C-0.38785 20.7425 -0.38785 16.3329 2.3209 13.6197L13.3944 2.54621C16.1031 -0.162538 20.5127 -0.162538 23.2259 2.54621C25.9347 5.25496 25.9347 9.66455 23.2259 12.3778L12.1525 23.4513C10.7981 24.8056 9.01627 25.4851 7.23444 25.4851ZM18.3124 2.6677C17.084 2.6677 15.8556 3.13566 14.9197 4.07157L3.84626 15.145C1.97893 17.0124 1.97893 20.0586 3.84626 21.9259C5.71808 23.7932 8.7598 23.7932 10.6271 21.9259L21.7006 10.8524C23.5679 8.98511 23.5679 5.93889 21.7006 4.07157C20.7647 3.13566 19.5363 2.6677 18.3124 2.6677Z" fill="#596373"/>
<path d="M16.9266 12.6926C16.6521 12.6926 16.3731 12.5891 16.1661 12.3776C15.7432 11.9547 15.7432 11.2752 16.1661 10.8523L18.9334 8.08502C19.3563 7.66206 20.0358 7.66206 20.4587 8.08502C20.8817 8.50798 20.8817 9.18742 20.4587 9.61038L17.6915 12.3776C17.48 12.5891 17.201 12.6926 16.9266 12.6926Z" fill="#596373"/>
<path d="M14.7758 18.8482C14.5013 18.8482 14.2223 18.7447 14.0153 18.5332L6.47403 10.9919C6.05107 10.5689 6.05107 9.8895 6.47403 9.46654C6.89699 9.04357 7.57642 9.04357 7.99938 9.46654L15.5362 17.0033C15.9591 17.4263 15.9591 18.1057 15.5362 18.5287C15.3292 18.7402 15.0502 18.8482 14.7758 18.8482Z" fill="#596373"/>
<path d="M7.23453 10.2314L3.08141 14.3845C0.791128 16.6748 0.791128 20.4004 3.08141 22.6907C5.3717 24.981 9.09735 24.981 11.3876 22.6907L15.5408 18.5376L7.23453 10.2314Z" fill="#596373"/>
</g>
</svg>
