<svg width="23" height="28" viewBox="0 0 23 28" fill="none" xmlns="http://www.w3.org/2000/svg">
<path id="Vector" d="M12.3921 27.3975H11.1592C10.5653 27.3975 10.0793 26.9161 10.0793 26.3176V23.1859C9.35488 23.6989 8.43247 24.1983 7.25358 24.6303C6.87111 24.7698 6.44365 24.6843 6.14668 24.4053C5.84971 24.1263 5.73272 23.7079 5.84971 23.3164C5.86771 23.2579 6.13318 22.3715 6.78112 21.3231C5.35025 21.2286 3.58192 20.8416 1.48512 19.9102C1.11165 19.7437 0.864176 19.3838 0.846178 18.9788C0.828179 18.5739 1.03516 18.1914 1.39063 17.9889C1.48512 17.9349 3.14096 17.0035 5.43575 16.6435C3.70341 14.8977 2.26354 12.5399 1.12515 9.5972C0.981163 9.21923 1.05766 8.78727 1.33213 8.4858C1.6066 8.18433 2.02507 8.06284 2.41653 8.16633C2.59201 8.21583 5.71022 9.09324 8.52246 11.505C8.28848 6.326 10.6823 1.45746 10.8127 1.19648C10.9972 0.832017 11.3707 0.602539 11.7757 0.602539C11.7847 0.602539 11.7937 0.602539 11.7982 0.602539C12.2166 0.611538 12.5901 0.863514 12.7566 1.24148C14.6329 5.47108 15.1503 8.87276 15.0244 11.5095C17.8411 9.09324 20.9503 8.21583 21.1303 8.16633C21.5217 8.05834 21.9402 8.17983 22.2147 8.4813C22.4892 8.78277 22.5656 9.21473 22.4217 9.5927C21.2878 12.5354 19.8434 14.8932 18.1111 16.639C20.4058 17.0035 22.0617 17.9304 22.1562 17.9844C22.5117 18.1869 22.7186 18.5694 22.7006 18.9743C22.6781 19.3793 22.4352 19.7393 22.0617 19.9057C19.9649 20.8371 18.1966 21.2196 16.7657 21.3186C17.4136 22.367 17.6791 23.2534 17.6926 23.3119C17.8051 23.7034 17.6926 24.1218 17.3956 24.4008C17.0987 24.6798 16.6712 24.7653 16.2887 24.6258C15.1098 24.1938 14.1874 23.6944 13.463 23.1814V26.3131C13.472 26.9161 12.9905 27.3975 12.3921 27.3975Z" fill="#596373"/>
</svg>
