<svg width="23" height="30" viewBox="0 0 23 30" fill="none" xmlns="http://www.w3.org/2000/svg">
<g id="Group 12931">
<g id="Group">
<path id="Vector" d="M16.9668 18.856C15.7249 18.7075 15.2659 18.1001 15.2659 18.1001L5.65033 8.48448L8.33208 5.80273L17.9477 15.4183C17.9477 15.4183 18.5551 15.8773 18.7036 17.1192C18.8341 18.2216 20.076 18.3386 20.7959 18.838C21.5158 19.333 21.6148 20.2554 20.8589 21.0113C20.103 21.7672 19.1806 21.6683 18.6856 20.9483C18.1862 20.2239 18.0692 18.9865 16.9668 18.856Z" fill="#596373"/>
<path id="Vector_2" d="M5.26761 8.63739L8.48481 5.42019L4.52967 1.46506C3.63876 0.574146 2.19889 0.574146 1.31247 1.46506C0.421558 2.35598 0.421558 3.79585 1.31247 4.68226L5.26761 8.63739Z" fill="#596373"/>
<path id="Vector_3" d="M6.15419 10.8781L10.7303 6.30202C10.8518 6.18053 10.8518 5.98255 10.7303 5.85656L8.54347 3.66977C8.27349 3.39979 7.83704 3.39979 7.56706 3.66977L3.52194 7.71489C3.25196 7.98486 3.25196 8.42132 3.52194 8.6913L5.70873 10.8781C5.83472 10.9996 6.0327 10.9996 6.15419 10.8781Z" fill="#596373"/>
</g>
<path id="Vector_4" d="M20.5889 21.9336C20.6249 21.8887 20.6924 21.8887 20.7284 21.9336C21.1288 22.4241 23.1401 25.0024 22.8792 27.2342C22.7982 27.9316 22.3482 28.6695 21.8758 28.9125C21.1198 29.2995 20.2064 29.2995 19.4505 28.9125C18.978 28.6695 18.5281 27.9316 18.4471 27.2342C18.1771 25.0024 20.1884 22.4241 20.5889 21.9336Z" fill="#596373"/>
</g>
</svg>
